<?xml version="1.0" encoding="UTF-8"?>
<!DOCTYPE svg PUBLIC "-//W3C//DTD SVG 1.1//EN" "http://www.w3.org/Graphics/SVG/1.1/DTD/svg11.dtd">
<!-- Creator: CorelDRAW X6 -->
<svg xmlns="http://www.w3.org/2000/svg" xml:space="preserve" width="284.293mm" height="286.221mm" version="1.1" style="shape-rendering:geometricPrecision; text-rendering:geometricPrecision; image-rendering:optimizeQuality; fill-rule:evenodd; clip-rule:evenodd"
viewBox="0 0 36966 37217"
 xmlns:xlink="http://www.w3.org/1999/xlink">
 <defs>
  <style type="text/css">
   <![CDATA[
    .fil1 {fill:#B2AFAA}
    .fil0 {fill:#ECAFAA}
    .fil2 {fill:#FDFDFD}
   ]]>
  </style>
 </defs>
 <g id="Слой_x0020_1">
  <metadata id="CorelCorpID_0Corel-Layer"/>
  <path class="fil0" d="M33556 29284c150,-128 536,-767 625,-914 1340,-2221 2548,-5243 2668,-7884 -289,91 -637,304 -898,434 -2997,1481 -6260,3349 -9471,4154 -937,235 -3272,759 -4197,762 187,-76 835,-192 1073,-247 1068,-248 1996,-436 2971,-991 1154,-656 2265,-1199 3492,-1785 1157,-552 2417,-1141 3565,-1706 618,-304 1134,-554 1786,-878 381,-189 1463,-735 1666,-926 22,13 121,60 130,66 -53,-676 -15,-1412 -56,-2107 -286,-4782 -2772,-9602 -6302,-12628 -2776,-2379 -4896,-3269 -8384,-4213 179,267 528,1335 664,1752 988,3036 2013,5854 2966,8958 365,1190 781,2417 1100,3669 1146,4509 -718,9139 -5249,10770 -234,84 -1672,511 -1958,315 144,-210 637,-252 882,-336 1965,-674 3637,-1841 4677,-3628 1543,-2651 1120,-4762 424,-7770 -298,-1290 -615,-2568 -956,-3819 -336,-1232 -732,-2455 -1090,-3633 -465,-1532 -1273,-3697 -2006,-5102 -338,-648 -923,-1386 -938,-1417 -261,10 -705,-87 -1012,-103 -364,-19 -736,-10 -1100,-45 -21,2176 14,1187 606,3407 434,1626 837,3108 1214,4753 378,1653 767,3313 1080,4977 416,2212 1037,4732 390,7059 -551,1981 -1772,3714 -3268,4739l-21 1365c761,81 3597,-199 4434,-323 2368,-351 1328,-419 3757,490 1201,450 2319,910 3420,1340l3163 1296c182,83 117,1 154,147z"/>
  <path class="fil1" d="M16047 254l554 -37c-1908,1819 -4270,10676 -5028,14037 -692,3070 -1089,5211 524,7787 1096,1750 2812,2971 4783,3564 279,84 681,121 810,362 -1245,14 -2796,-608 -3651,-1140 -3325,-2067 -4669,-5904 -3670,-9993 310,-1270 740,-2484 1107,-3707 894,-2975 1974,-6020 2966,-8961 187,-555 408,-1284 648,-1774 -892,89 -2444,600 -3212,908 -2816,1126 -5396,2880 -7221,5026 -2341,2752 -4008,6056 -4486,9758 -37,288 -127,1752 -172,1864l0 1780 67 0 1 -346 7015 3460c617,288 1142,548 1756,855 1414,707 1960,1213 3582,1646l2178 499c-986,32 -3274,-521 -4207,-759 -3061,-780 -4347,-1635 -7056,-2945 -565,-273 -1120,-556 -1658,-821 -271,-134 -1401,-612 -1561,-879 -6,-10 -14,-26 -19,-34 -5,-8 -11,-24 -19,-35 150,1693 602,3411 1138,4853 252,679 608,1447 928,2049l1146 1897c67,-138 -74,-55 354,-239 143,-61 266,-115 416,-174l2445 -993c1111,-444 2209,-853 3307,-1288 535,-212 1102,-428 1640,-647 466,-189 1441,98 1949,172 1322,194 2998,353 4351,329l-1 -1496c-758,-495 -1397,-1272 -1933,-2016 -2116,-2944 -1494,-6386 -853,-9725 608,-3162 1297,-6531 2198,-9635 139,-479 306,-1018 478,-1485 223,-606 46,-1241 125,-1904l-1352 96c-150,16 -249,-2 -369,90z"/>
  <path class="fil2" d="M3290 29169c255,350 469,646 736,993 155,201 635,801 800,909 371,174 3195,-328 3746,-411 2253,-341 6304,-1141 8121,-2439 750,-535 650,-673 1050,-1093l13 10014 17 75 842 0 -9 -40 21 -10284c464,198 29,813 2423,1984 954,467 2244,803 3345,1087 604,156 1212,247 1853,378 1112,227 2600,460 3775,609 559,71 1490,236 1988,228 103,-39 35,-1 127,-81 174,-151 1376,-1623 1419,-1815 -38,-145 28,-64 -154,-147l-3163 -1296c-1101,-430 -2220,-890 -3420,-1340 -2428,-909 -1389,-841 -3757,-490 -838,124 -3674,403 -4434,323l21 -1365c1496,-1025 2717,-2757 3268,-4739 647,-2327 26,-4847 -390,-7059 -313,-1664 -702,-3324 -1080,-4977 -377,-1645 -780,-3127 -1214,-4753 -592,-2220 -627,-1231 -606,-3407 -132,-52 -411,-32 -599,-21 -145,4 -217,-29 -259,55 -79,663 98,1299 -125,1904 -172,467 -339,1006 -478,1485 -901,3104 -1590,6473 -2198,9635 -642,3338 -1264,6780 853,9725 535,745 1174,1522 1933,2016l1 1496c-1354,24 -3030,-135 -4351,-329 -508,-74 -1483,-362 -1949,-172 -538,219 -1106,435 -1640,647 -1098,435 -2196,844 -3307,1288l-2445 993c-150,59 -272,113 -416,174 -429,183 -288,100 -354,239z"/>
  <path class="fil0" d="M18605 37176c773,-82 1525,-79 2282,-183 1376,-189 2624,-498 3901,-956 2326,-835 4992,-2487 6648,-4218 177,-185 464,-419 574,-639 -498,8 -1429,-158 -1988,-228 -1175,-149 -2664,-382 -3775,-609 -641,-131 -1249,-222 -1853,-378 -1100,-285 -2391,-621 -3345,-1087 -2394,-1171 -1959,-1787 -2423,-1984l-21 10284z"/>
  <path class="fil1" d="M4827 31070c230,442 1972,1924 2489,2314 3133,2358 6253,3486 10440,3757l-13 -10014c-400,420 -300,558 -1050,1093 -1817,1298 -5867,2098 -8121,2439 -551,83 -3375,585 -3746,411z"/>
  <path class="fil2" d="M16047 254c-177,-28 -805,71 -956,137 -240,491 -461,1220 -648,1774 -992,2941 -2072,5985 -2966,8961 -367,1223 -797,2437 -1107,3707 -999,4089 345,7926 3670,9993 855,532 2406,1154 3651,1140 -129,-241 -531,-278 -810,-362 -1971,-593 -3686,-1814 -4783,-3564 -1614,-2576 -1216,-4718 -524,-7787 758,-3361 3120,-12218 5028,-14037l-554 37z"/>
  <path class="fil2" d="M22222 422l-1484 -241c15,31 600,769 938,1417 733,1405 1541,3570 2006,5102 358,1179 754,2401 1090,3633 341,1251 658,2529 956,3819 695,3009 1119,5119 -424,7770 -1040,1787 -2712,2953 -4677,3628 -245,84 -738,126 -882,336 286,196 1724,-230 1958,-315 4531,-1631 6395,-6261 5249,-10770 -318,-1252 -734,-2479 -1100,-3669 -953,-3104 -1978,-5923 -2966,-8958 -136,-417 -485,-1485 -664,-1752z"/>
  <path class="fil2" d="M67 19727l10 642c8,11 14,27 19,35 5,8 13,24 19,34 160,267 1290,745 1561,879 537,265 1093,547 1658,821 2709,1310 3996,2164 7056,2945 933,238 3221,791 4207,759l-2178 -499c-1622,-433 -2167,-939 -3582,-1646 -614,-307 -1139,-567 -1756,-855l-7015 -3460 -1 346z"/>
  <path class="fil2" d="M36849 20486c136,-177 117,-817 115,-1116 -9,-7 -108,-53 -130,-66 -203,191 -1284,736 -1666,926 -652,324 -1168,574 -1786,878 -1148,565 -2407,1153 -3565,1706 -1226,585 -2338,1128 -3492,1785 -975,555 -1903,743 -2971,991 -238,55 -885,171 -1073,247 925,-3 3260,-527 4197,-762 3212,-805 6475,-2673 9471,-4154 262,-129 609,-343 898,-434z"/>
 </g>
</svg>
